<svg width="274" height="193" viewBox="0 0 274 193" fill="none" xmlns="http://www.w3.org/2000/svg">
	<g filter="url(#filter0_dd_21_2)">
		<path d="M193.666 55.4296C192.567 55.4296 192.567 55.4296 191.469 55.4296C188.174 45.5437 178.288 37.8548 167.304 37.8548C164.008 37.8548 160.713 38.9532 157.418 40.0516C154.123 30.1658 144.237 23.5752 133.252 23.5752C122.268 23.5752 113.481 30.1658 110.186 40.0516C109.087 40.0516 107.989 40.0516 105.792 40.0516C93.7092 40.0516 84.9218 48.839 83.8233 59.8233C82.7249 59.8233 80.5281 59.8233 78.3312 59.8233C64.0517 59.8233 53.0674 70.8075 53.0674 85.087C53.0674 99.3666 64.0517 110.351 78.3312 110.351C78.3312 110.351 78.3312 110.351 79.4296 110.351C81.6265 120.237 91.5123 127.926 102.497 127.926C111.284 127.926 117.875 123.532 122.268 116.941C127.76 126.827 137.646 132.319 149.729 132.319C162.91 132.319 173.894 124.63 179.386 113.646C183.78 115.843 189.272 118.04 194.764 118.04C211.241 118.04 225.52 104.859 225.52 87.2839C225.52 69.7091 210.142 55.4296 193.666 55.4296Z" fill="white"/>
	</g>
	<g filter="url(#filter1_dd_21_2)">
		<path d="M132.35 44.6421C130.154 44.6421 126.858 44.6421 124.661 45.7406C121.366 29.2642 108.185 17.1815 90.6103 16.0831C74.1339 14.9847 59.8543 24.8705 54.3622 40.2484C41.1811 39.15 29.0984 50.1343 28 64.4138C28 77.5949 37.8858 89.6776 52.1654 90.776C59.8543 90.776 66.4449 88.5792 70.8386 84.1855C75.2323 86.3823 81.8228 88.5792 87.315 88.5792C98.2992 89.6776 108.185 85.2839 114.776 77.5949C118.071 83.087 123.563 86.3823 130.154 86.3823C142.236 87.4807 152.122 77.5949 152.122 66.6107C153.221 54.528 144.433 44.6421 132.35 44.6421Z" fill="white"/>
	</g>
	<defs>
		<filter id="filter0_dd_21_2" x="25.0674" y="7.57522" width="248.453" height="184.744" filterUnits="userSpaceOnUse" color-interpolation-filters="sRGB">
			<feFlood flood-opacity="0" result="BackgroundImageFix"/>
			<feColorMatrix in="SourceAlpha" type="matrix" values="0 0 0 0 0 0 0 0 0 0 0 0 0 0 0 0 0 0 127 0" result="hardAlpha"/>
			<feOffset dx="10" dy="22"/>
			<feGaussianBlur stdDeviation="19"/>
			<feComposite in2="hardAlpha" operator="out"/>
			<feColorMatrix type="matrix" values="0 0 0 0 0.0789931 0 0 0 0 0.200521 0 0 0 0 0.291667 0 0 0 0.24 0"/>
			<feBlend mode="normal" in2="BackgroundImageFix" result="effect1_dropShadow_21_2"/>
			<feColorMatrix in="SourceAlpha" type="matrix" values="0 0 0 0 0 0 0 0 0 0 0 0 0 0 0 0 0 0 127 0" result="hardAlpha"/>
			<feOffset dy="8"/>
			<feGaussianBlur stdDeviation="4"/>
			<feComposite in2="hardAlpha" operator="out"/>
			<feColorMatrix type="matrix" values="0 0 0 0 0.0784314 0 0 0 0 0.2 0 0 0 0 0.290196 0 0 0 0.48 0"/>
			<feBlend mode="normal" in2="effect1_dropShadow_21_2" result="effect2_dropShadow_21_2"/>
			<feBlend mode="normal" in="SourceGraphic" in2="effect2_dropShadow_21_2" result="shape"/>
		</filter>
		<filter id="filter1_dd_21_2" x="0" y="0" width="200.215" height="150.776" filterUnits="userSpaceOnUse" color-interpolation-filters="sRGB">
			<feFlood flood-opacity="0" result="BackgroundImageFix"/>
			<feColorMatrix in="SourceAlpha" type="matrix" values="0 0 0 0 0 0 0 0 0 0 0 0 0 0 0 0 0 0 127 0" result="hardAlpha"/>
			<feOffset dx="10" dy="22"/>
			<feGaussianBlur stdDeviation="19"/>
			<feComposite in2="hardAlpha" operator="out"/>
			<feColorMatrix type="matrix" values="0 0 0 0 0.0789931 0 0 0 0 0.200521 0 0 0 0 0.291667 0 0 0 0.24 0"/>
			<feBlend mode="normal" in2="BackgroundImageFix" result="effect1_dropShadow_21_2"/>
			<feColorMatrix in="SourceAlpha" type="matrix" values="0 0 0 0 0 0 0 0 0 0 0 0 0 0 0 0 0 0 127 0" result="hardAlpha"/>
			<feOffset dy="8"/>
			<feGaussianBlur stdDeviation="4"/>
			<feComposite in2="hardAlpha" operator="out"/>
			<feColorMatrix type="matrix" values="0 0 0 0 0.0784314 0 0 0 0 0.2 0 0 0 0 0.290196 0 0 0 0.48 0"/>
			<feBlend mode="normal" in2="effect1_dropShadow_21_2" result="effect2_dropShadow_21_2"/>
			<feBlend mode="normal" in="SourceGraphic" in2="effect2_dropShadow_21_2" result="shape"/>
		</filter>
	</defs>
</svg>
