<svg width="258" height="244" viewBox="0 0 258 244" fill="none" xmlns="http://www.w3.org/2000/svg">
	<g filter="url(#filter0_dd_26_1522)">
		<path d="M185.495 120.215C178.449 117.195 175.429 109.142 175.429 109.142C175.429 109.142 183.482 105.116 190.528 108.136C197.574 111.156 200.594 119.209 200.594 119.209C200.594 119.209 192.541 123.235 185.495 120.215Z" fill="url(#paint0_linear_26_1522)"/>
		<path d="M77.7864 75.9238C70.74 72.9039 67.7201 64.851 67.7201 64.851C67.7201 64.851 75.7731 60.8245 82.8195 63.8443C89.8658 66.8642 92.8857 74.9172 92.8857 74.9172C92.8857 74.9172 84.8327 78.9437 77.7864 75.9238Z" fill="url(#paint1_linear_26_1522)"/>
		<path d="M118.051 34.6523C121.071 41.6987 117.045 49.7516 117.045 49.7516C117.045 49.7516 107.985 46.7318 105.972 39.6854C102.952 33.6457 106.978 25.5927 106.978 25.5927C106.978 25.5927 115.031 28.6126 118.051 34.6523Z" fill="url(#paint2_linear_26_1522)"/>
		<path d="M163.349 143.367C166.369 150.414 162.343 158.467 162.343 158.467C162.343 158.467 153.283 155.447 151.27 148.401C148.25 141.354 152.276 133.301 152.276 133.301C152.276 133.301 160.329 136.321 163.349 143.367Z" fill="url(#paint3_linear_26_1522)"/>
		<path d="M77.7864 108.136C84.8327 105.116 92.8857 109.142 92.8857 109.142C92.8857 109.142 89.8658 118.202 82.8195 120.215C75.7731 123.235 67.7201 119.209 67.7201 119.209C67.7201 119.209 70.74 111.156 77.7864 108.136Z" fill="url(#paint4_linear_26_1522)"/>
		<path d="M185.495 62.8377C192.541 59.8179 200.594 63.8443 200.594 63.8443C200.594 63.8443 197.574 72.9039 190.528 74.9172C183.482 77.937 175.429 73.9106 175.429 73.9106C175.429 73.9106 178.449 65.8576 185.495 62.8377Z" fill="url(#paint5_linear_26_1522)"/>
		<path d="M105.972 143.367C108.992 136.321 117.045 133.301 117.045 133.301C117.045 133.301 121.071 141.354 118.051 148.401C115.031 155.447 106.978 158.467 106.978 158.467C106.978 158.467 102.952 150.414 105.972 143.367Z" fill="url(#paint6_linear_26_1522)"/>
		<path d="M150.263 34.6523C153.283 27.606 161.336 24.5861 161.336 24.5861C161.336 24.5861 165.362 32.6391 162.343 39.6854C159.323 46.7318 151.27 49.7516 151.27 49.7516C151.27 49.7516 147.243 41.6987 150.263 34.6523Z" fill="url(#paint7_linear_26_1522)"/>
		<path d="M143.217 33.6457C143.217 42.7053 134.157 50.7583 134.157 50.7583C134.157 50.7583 125.098 43.7119 125.098 33.6457C125.098 23.5795 134.157 16.5331 134.157 16.5331C134.157 16.5331 143.217 23.5795 143.217 33.6457Z" fill="url(#paint8_linear_26_1522)"/>
		<path d="M143.217 150.414C143.217 159.473 134.157 167.526 134.157 167.526C134.157 167.526 125.098 160.48 125.098 150.414C125.098 141.354 134.157 133.301 134.157 133.301C134.157 133.301 143.217 141.354 143.217 150.414Z" fill="url(#paint9_linear_26_1522)"/>
		<path d="M75.7732 82.9702C84.8328 82.9702 92.8858 92.0298 92.8858 92.0298C92.8858 92.0298 84.8328 100.083 75.7732 100.083C66.7136 100.083 58.6606 92.0298 58.6606 92.0298C58.6606 92.0298 66.7136 82.9702 75.7732 82.9702Z" fill="url(#paint10_linear_26_1522)"/>
		<path d="M192.541 82.9702C201.601 82.9702 209.654 92.0298 209.654 92.0298C209.654 92.0298 202.608 101.089 192.541 101.089C183.482 101.089 175.429 92.0298 175.429 92.0298C175.429 92.0298 183.482 82.9702 192.541 82.9702Z" fill="url(#paint11_linear_26_1522)"/>
		<path d="M86.8461 127.262C93.8924 120.215 104.965 121.222 104.965 121.222C104.965 121.222 105.972 132.295 98.9255 139.341C91.8792 146.387 80.8063 145.381 80.8063 145.381C80.8063 145.381 79.7997 133.301 86.8461 127.262Z" fill="url(#paint12_linear_26_1522)"/>
		<path d="M169.389 44.7185C176.435 37.6722 187.508 38.6788 187.508 38.6788C187.508 38.6788 188.515 49.7516 181.468 56.798C175.429 62.8377 163.349 61.8311 163.349 61.8311C163.349 61.8311 163.349 50.7583 169.389 44.7185Z" fill="url(#paint13_linear_26_1522)"/>
		<path d="M169.389 139.341C162.343 132.295 163.349 121.222 163.349 121.222C163.349 121.222 174.422 120.215 181.468 127.262C188.515 134.308 187.508 145.381 187.508 145.381C187.508 145.381 176.435 146.387 169.389 139.341Z" fill="url(#paint14_linear_26_1522)"/>
		<path d="M86.8461 56.798C79.7997 49.7516 80.8063 38.6788 80.8063 38.6788C80.8063 38.6788 91.8792 37.6722 98.9255 44.7185C104.965 50.7583 104.965 61.8311 104.965 61.8311C104.965 61.8311 92.8858 62.8377 86.8461 56.798Z" fill="url(#paint15_linear_26_1522)"/>
	</g>
	<g filter="url(#filter1_dd_26_1522)">
		<path d="M182.475 92.0298C182.475 118.202 161.336 139.341 135.164 139.341C108.992 139.341 86.8459 118.202 86.8459 92.0298C86.8459 65.8576 107.985 43.7119 134.157 43.7119C160.329 43.7119 182.475 65.8576 182.475 92.0298Z" fill="url(#paint16_linear_26_1522)"/>
	</g>
	<g filter="url(#filter2_dd_26_1522)">
		<path d="M175.449 122.228C174.442 122.228 174.442 122.228 173.435 122.228C170.415 114.175 162.362 108.136 153.303 108.136C150.283 108.136 148.27 109.142 145.25 109.142C142.23 101.089 135.184 96.0562 126.124 96.0562C118.071 96.0562 111.025 101.089 108.005 109.142C106.998 109.142 105.992 109.142 104.985 109.142C95.9254 109.142 87.8725 116.189 86.8658 125.248C85.8592 125.248 83.846 125.248 82.8394 125.248C71.7665 125.248 62.7069 134.308 62.7069 145.381C62.7069 156.454 71.7665 165.513 82.8394 165.513C82.8394 165.513 82.8394 165.513 83.846 165.513C85.8592 173.566 92.9056 179.606 101.965 179.606C109.012 179.606 115.051 175.579 118.071 170.546C122.098 178.599 131.157 183.632 140.217 183.632C150.283 183.632 159.343 177.593 163.369 168.533C167.396 170.546 171.422 171.553 175.449 171.553C188.535 171.553 199.607 160.48 199.607 147.394C199.607 132.295 189.541 122.228 175.449 122.228Z" fill="white"/>
		<path d="M176.455 122.228C175.449 122.228 175.449 122.228 174.442 122.228C171.422 114.175 163.369 108.136 154.31 108.136C151.29 108.136 149.276 109.142 146.257 109.142C143.237 101.089 136.19 96.0562 127.131 96.0562C119.078 97.0629 112.031 102.096 109.012 109.142C108.005 109.142 106.998 109.142 105.992 109.142C96.9321 109.142 88.8791 116.189 87.8725 125.248C86.8659 125.248 84.8527 125.248 83.846 125.248C72.7732 125.248 63.7136 134.308 63.7136 145.381C63.7136 156.454 72.7732 165.513 83.846 165.513C83.846 165.513 83.846 165.513 84.8527 165.513C86.8659 173.566 93.9123 179.606 102.972 179.606C110.018 179.606 116.058 175.579 119.078 170.546C123.104 178.599 132.164 183.632 141.223 183.632C151.29 183.632 160.349 177.593 164.376 168.533C168.402 170.546 172.429 171.553 176.455 171.553C189.541 171.553 200.614 160.48 200.614 147.394C200.614 133.301 189.541 122.228 176.455 122.228Z" fill="#E9F2F5"/>
	</g>
	<g filter="url(#filter3_dd_26_1522)">
		<path d="M124.111 116.189C122.098 116.189 119.078 116.189 117.065 117.195C114.045 103.103 101.965 92.0298 85.8593 91.0231C70.76 90.0165 57.6739 99.0761 52.6408 113.169C40.5613 112.162 29.4885 122.228 28.4818 135.314C27.4752 148.401 37.5414 159.473 50.6275 159.473C57.6739 159.473 63.7136 157.46 67.7401 153.434C71.7666 156.454 76.7997 157.46 82.8394 157.46C92.9056 158.467 101.965 154.44 108.005 147.394C111.025 151.42 116.058 154.44 122.098 154.44C133.171 155.447 142.23 146.387 142.23 136.321C143.237 126.255 135.184 117.195 124.111 116.189Z" fill="white"/>
	</g>
	<defs>
		<filter id="filter0_dd_26_1522" x="30.6606" y="0.533112" width="226.993" height="226.993" filterUnits="userSpaceOnUse" color-interpolation-filters="sRGB">
			<feFlood flood-opacity="0" result="BackgroundImageFix"/>
			<feColorMatrix in="SourceAlpha" type="matrix" values="0 0 0 0 0 0 0 0 0 0 0 0 0 0 0 0 0 0 127 0" result="hardAlpha"/>
			<feOffset dx="10" dy="22"/>
			<feGaussianBlur stdDeviation="19"/>
			<feComposite in2="hardAlpha" operator="out"/>
			<feColorMatrix type="matrix" values="0 0 0 0 0.0789931 0 0 0 0 0.200521 0 0 0 0 0.291667 0 0 0 0.24 0"/>
			<feBlend mode="normal" in2="BackgroundImageFix" result="effect1_dropShadow_26_1522"/>
			<feColorMatrix in="SourceAlpha" type="matrix" values="0 0 0 0 0 0 0 0 0 0 0 0 0 0 0 0 0 0 127 0" result="hardAlpha"/>
			<feOffset dy="8"/>
			<feGaussianBlur stdDeviation="4"/>
			<feComposite in2="hardAlpha" operator="out"/>
			<feColorMatrix type="matrix" values="0 0 0 0 0.0784314 0 0 0 0 0.2 0 0 0 0 0.290196 0 0 0 0.48 0"/>
			<feBlend mode="normal" in2="effect1_dropShadow_26_1522" result="effect2_dropShadow_26_1522"/>
			<feBlend mode="normal" in="SourceGraphic" in2="effect2_dropShadow_26_1522" result="shape"/>
		</filter>
		<filter id="filter1_dd_26_1522" x="58.8459" y="27.7119" width="171.629" height="171.629" filterUnits="userSpaceOnUse" color-interpolation-filters="sRGB">
			<feFlood flood-opacity="0" result="BackgroundImageFix"/>
			<feColorMatrix in="SourceAlpha" type="matrix" values="0 0 0 0 0 0 0 0 0 0 0 0 0 0 0 0 0 0 127 0" result="hardAlpha"/>
			<feOffset dx="10" dy="22"/>
			<feGaussianBlur stdDeviation="19"/>
			<feComposite in2="hardAlpha" operator="out"/>
			<feColorMatrix type="matrix" values="0 0 0 0 0.0789931 0 0 0 0 0.200521 0 0 0 0 0.291667 0 0 0 0.24 0"/>
			<feBlend mode="normal" in2="BackgroundImageFix" result="effect1_dropShadow_26_1522"/>
			<feColorMatrix in="SourceAlpha" type="matrix" values="0 0 0 0 0 0 0 0 0 0 0 0 0 0 0 0 0 0 127 0" result="hardAlpha"/>
			<feOffset dy="8"/>
			<feGaussianBlur stdDeviation="4"/>
			<feComposite in2="hardAlpha" operator="out"/>
			<feColorMatrix type="matrix" values="0 0 0 0 0.0784314 0 0 0 0 0.2 0 0 0 0 0.290196 0 0 0 0.48 0"/>
			<feBlend mode="normal" in2="effect1_dropShadow_26_1522" result="effect2_dropShadow_26_1522"/>
			<feBlend mode="normal" in="SourceGraphic" in2="effect2_dropShadow_26_1522" result="shape"/>
		</filter>
		<filter id="filter2_dd_26_1522" x="34.7069" y="80.0562" width="213.907" height="163.576" filterUnits="userSpaceOnUse" color-interpolation-filters="sRGB">
			<feFlood flood-opacity="0" result="BackgroundImageFix"/>
			<feColorMatrix in="SourceAlpha" type="matrix" values="0 0 0 0 0 0 0 0 0 0 0 0 0 0 0 0 0 0 127 0" result="hardAlpha"/>
			<feOffset dx="10" dy="22"/>
			<feGaussianBlur stdDeviation="19"/>
			<feComposite in2="hardAlpha" operator="out"/>
			<feColorMatrix type="matrix" values="0 0 0 0 0.0789931 0 0 0 0 0.200521 0 0 0 0 0.291667 0 0 0 0.24 0"/>
			<feBlend mode="normal" in2="BackgroundImageFix" result="effect1_dropShadow_26_1522"/>
			<feColorMatrix in="SourceAlpha" type="matrix" values="0 0 0 0 0 0 0 0 0 0 0 0 0 0 0 0 0 0 127 0" result="hardAlpha"/>
			<feOffset dy="8"/>
			<feGaussianBlur stdDeviation="4"/>
			<feComposite in2="hardAlpha" operator="out"/>
			<feColorMatrix type="matrix" values="0 0 0 0 0.0784314 0 0 0 0 0.2 0 0 0 0 0.290196 0 0 0 0.48 0"/>
			<feBlend mode="normal" in2="effect1_dropShadow_26_1522" result="effect2_dropShadow_26_1522"/>
			<feBlend mode="normal" in="SourceGraphic" in2="effect2_dropShadow_26_1522" result="shape"/>
		</filter>
		<filter id="filter3_dd_26_1522" x="0.41243" y="74.947" width="189.903" height="144.526" filterUnits="userSpaceOnUse" color-interpolation-filters="sRGB">
			<feFlood flood-opacity="0" result="BackgroundImageFix"/>
			<feColorMatrix in="SourceAlpha" type="matrix" values="0 0 0 0 0 0 0 0 0 0 0 0 0 0 0 0 0 0 127 0" result="hardAlpha"/>
			<feOffset dx="10" dy="22"/>
			<feGaussianBlur stdDeviation="19"/>
			<feComposite in2="hardAlpha" operator="out"/>
			<feColorMatrix type="matrix" values="0 0 0 0 0.0789931 0 0 0 0 0.200521 0 0 0 0 0.291667 0 0 0 0.24 0"/>
			<feBlend mode="normal" in2="BackgroundImageFix" result="effect1_dropShadow_26_1522"/>
			<feColorMatrix in="SourceAlpha" type="matrix" values="0 0 0 0 0 0 0 0 0 0 0 0 0 0 0 0 0 0 127 0" result="hardAlpha"/>
			<feOffset dy="8"/>
			<feGaussianBlur stdDeviation="4"/>
			<feComposite in2="hardAlpha" operator="out"/>
			<feColorMatrix type="matrix" values="0 0 0 0 0.0784314 0 0 0 0 0.2 0 0 0 0 0.290196 0 0 0 0.48 0"/>
			<feBlend mode="normal" in2="effect1_dropShadow_26_1522" result="effect2_dropShadow_26_1522"/>
			<feBlend mode="normal" in="SourceGraphic" in2="effect2_dropShadow_26_1522" result="shape"/>
		</filter>
		<linearGradient id="paint0_linear_26_1522" x1="179.636" y1="105.511" x2="197.174" y2="123.049" gradientUnits="userSpaceOnUse">
			<stop stop-color="#FFBB31"/>
			<stop offset="1" stop-color="#FF9D00"/>
		</linearGradient>
		<linearGradient id="paint1_linear_26_1522" x1="71.346" y1="60.6564" x2="88.8824" y2="78.1927" gradientUnits="userSpaceOnUse">
			<stop stop-color="#FFBB31"/>
			<stop offset="1" stop-color="#FF9D00"/>
		</linearGradient>
		<linearGradient id="paint2_linear_26_1522" x1="103.059" y1="28.9337" x2="120.598" y2="46.4731" gradientUnits="userSpaceOnUse">
			<stop stop-color="#FFBB31"/>
			<stop offset="1" stop-color="#FF9D00"/>
		</linearGradient>
		<linearGradient id="paint3_linear_26_1522" x1="147.915" y1="137.228" x2="165.452" y2="154.765" gradientUnits="userSpaceOnUse">
			<stop stop-color="#FFBB31"/>
			<stop offset="1" stop-color="#FF9D00"/>
		</linearGradient>
		<linearGradient id="paint4_linear_26_1522" x1="74.9135" y1="109.083" x2="85.3078" y2="119.477" gradientUnits="userSpaceOnUse">
			<stop stop-color="#FFBB31"/>
			<stop offset="1" stop-color="#FF9D00"/>
		</linearGradient>
		<linearGradient id="paint5_linear_26_1522" x1="183.203" y1="64.2269" x2="193.598" y2="74.6222" gradientUnits="userSpaceOnUse">
			<stop stop-color="#FFBB31"/>
			<stop offset="1" stop-color="#FF9D00"/>
		</linearGradient>
		<linearGradient id="paint6_linear_26_1522" x1="106.634" y1="140.802" x2="117.026" y2="151.193" gradientUnits="userSpaceOnUse">
			<stop stop-color="#FFBB31"/>
			<stop offset="1" stop-color="#FF9D00"/>
		</linearGradient>
		<linearGradient id="paint7_linear_26_1522" x1="151.489" y1="32.5082" x2="161.88" y2="42.8996" gradientUnits="userSpaceOnUse">
			<stop stop-color="#FFBB31"/>
			<stop offset="1" stop-color="#FF9D00"/>
		</linearGradient>
		<linearGradient id="paint8_linear_26_1522" x1="125.849" y1="24.8377" x2="142.666" y2="41.6554" gradientUnits="userSpaceOnUse">
			<stop stop-color="#FFD45C"/>
			<stop offset="1" stop-color="#FF9D00"/>
		</linearGradient>
		<linearGradient id="paint9_linear_26_1522" x1="125.849" y1="142.053" x2="142.666" y2="158.87" gradientUnits="userSpaceOnUse">
			<stop stop-color="#FFD45C"/>
			<stop offset="1" stop-color="#FF9D00"/>
		</linearGradient>
		<linearGradient id="paint10_linear_26_1522" x1="67.2401" y1="83.4423" x2="84.0577" y2="100.26" gradientUnits="userSpaceOnUse">
			<stop stop-color="#FFD45C"/>
			<stop offset="1" stop-color="#FF9D00"/>
		</linearGradient>
		<linearGradient id="paint11_linear_26_1522" x1="184.452" y1="83.4423" x2="201.27" y2="100.26" gradientUnits="userSpaceOnUse">
			<stop stop-color="#FFD45C"/>
			<stop offset="1" stop-color="#FF9D00"/>
		</linearGradient>
		<linearGradient id="paint12_linear_26_1522" x1="86.7537" y1="127.223" x2="98.8832" y2="139.352" gradientUnits="userSpaceOnUse">
			<stop stop-color="#FFD45C"/>
			<stop offset="1" stop-color="#FF9D00"/>
		</linearGradient>
		<linearGradient id="paint13_linear_26_1522" x1="169.632" y1="44.3445" x2="181.762" y2="56.474" gradientUnits="userSpaceOnUse">
			<stop stop-color="#FFD45C"/>
			<stop offset="1" stop-color="#FF9D00"/>
		</linearGradient>
		<linearGradient id="paint14_linear_26_1522" x1="163.832" y1="121.423" x2="187.563" y2="145.154" gradientUnits="userSpaceOnUse">
			<stop stop-color="#FFD45C"/>
			<stop offset="1" stop-color="#FF9D00"/>
		</linearGradient>
		<linearGradient id="paint15_linear_26_1522" x1="80.9535" y1="38.5444" x2="104.684" y2="62.2753" gradientUnits="userSpaceOnUse">
			<stop stop-color="#FFD45C"/>
			<stop offset="1" stop-color="#FF9D00"/>
		</linearGradient>
		<linearGradient id="paint16_linear_26_1522" x1="100.474" y1="58.0684" x2="168.04" y2="125.635" gradientUnits="userSpaceOnUse">
			<stop stop-color="#FFD45C"/>
			<stop offset="1" stop-color="#FF9D00"/>
		</linearGradient>
	</defs>
</svg>
