<svg width="191" height="272" viewBox="0 0 191 272" fill="none" xmlns="http://www.w3.org/2000/svg">
	<g filter="url(#filter0_dd_26_1983)">
		<path d="M87.4619 79.8128C87.4619 95.766 74.4093 108.819 58.4561 108.819C42.5029 108.819 28 95.766 28 79.8128C28 52.2573 58.4561 16 58.4561 16H59.9064V17.4503C67.1579 26.152 87.4619 59.5087 87.4619 79.8128Z" fill="#C4F1FF"/>
		<path d="M88.9124 81.2631C88.9124 97.2163 75.8598 110.269 59.9066 110.269C43.9534 110.269 30.9008 97.2163 30.9008 81.2631C30.9008 58.0584 59.9066 16 59.9066 16C59.9066 16 88.9124 56.6082 88.9124 81.2631Z" fill="url(#paint0_linear_26_1983)"/>
	</g>
	<g filter="url(#filter1_dd_26_1983)">
		<path d="M67.1581 192.936C67.1581 203.088 58.4563 210.339 49.7546 210.339C41.0528 210.339 30.9008 201.637 30.9008 192.936C30.9008 175.532 49.7546 153.778 49.7546 153.778H51.2049V155.228C55.5557 159.579 67.1581 179.883 67.1581 192.936Z" fill="#C4F1FF"/>
		<path d="M70.0585 194.386C70.0585 204.538 61.3567 211.789 52.655 211.789C42.5029 211.789 35.2515 203.088 35.2515 194.386C35.2515 179.883 52.655 153.778 52.655 153.778C52.655 153.778 70.0585 178.433 70.0585 194.386Z" fill="url(#paint1_linear_26_1983)"/>
	</g>
	<g filter="url(#filter2_dd_26_1983)">
		<path d="M141.123 142.175C141.123 153.778 130.97 163.93 119.368 163.93C107.766 163.93 97.6138 153.778 97.6138 142.175C97.6138 121.871 119.368 95.766 119.368 95.766L120.818 94.3157V95.766C125.169 103.017 141.123 127.672 141.123 142.175Z" fill="#C4F1FF"/>
		<path d="M142.573 143.626C142.573 155.228 132.421 165.38 120.819 165.38C109.216 165.38 99.0642 155.228 99.0642 143.626C99.0642 126.222 120.819 95.766 120.819 95.766C120.819 95.766 142.573 124.772 142.573 143.626Z" fill="url(#paint2_linear_26_1983)"/>
	</g>
	<defs>
		<filter id="filter0_dd_26_1983" x="0" y="0" width="136.912" height="170.269" filterUnits="userSpaceOnUse" color-interpolation-filters="sRGB">
			<feFlood flood-opacity="0" result="BackgroundImageFix"/>
			<feColorMatrix in="SourceAlpha" type="matrix" values="0 0 0 0 0 0 0 0 0 0 0 0 0 0 0 0 0 0 127 0" result="hardAlpha"/>
			<feOffset dx="10" dy="22"/>
			<feGaussianBlur stdDeviation="19"/>
			<feComposite in2="hardAlpha" operator="out"/>
			<feColorMatrix type="matrix" values="0 0 0 0 0.0789931 0 0 0 0 0.200521 0 0 0 0 0.291667 0 0 0 0.24 0"/>
			<feBlend mode="normal" in2="BackgroundImageFix" result="effect1_dropShadow_26_1983"/>
			<feColorMatrix in="SourceAlpha" type="matrix" values="0 0 0 0 0 0 0 0 0 0 0 0 0 0 0 0 0 0 127 0" result="hardAlpha"/>
			<feOffset dy="8"/>
			<feGaussianBlur stdDeviation="4"/>
			<feComposite in2="hardAlpha" operator="out"/>
			<feColorMatrix type="matrix" values="0 0 0 0 0.0784314 0 0 0 0 0.2 0 0 0 0 0.290196 0 0 0 0.48 0"/>
			<feBlend mode="normal" in2="effect1_dropShadow_26_1983" result="effect2_dropShadow_26_1983"/>
			<feBlend mode="normal" in="SourceGraphic" in2="effect2_dropShadow_26_1983" result="shape"/>
		</filter>
		<filter id="filter1_dd_26_1983" x="2.90079" y="137.778" width="115.158" height="134.012" filterUnits="userSpaceOnUse" color-interpolation-filters="sRGB">
			<feFlood flood-opacity="0" result="BackgroundImageFix"/>
			<feColorMatrix in="SourceAlpha" type="matrix" values="0 0 0 0 0 0 0 0 0 0 0 0 0 0 0 0 0 0 127 0" result="hardAlpha"/>
			<feOffset dx="10" dy="22"/>
			<feGaussianBlur stdDeviation="19"/>
			<feComposite in2="hardAlpha" operator="out"/>
			<feColorMatrix type="matrix" values="0 0 0 0 0.0789931 0 0 0 0 0.200521 0 0 0 0 0.291667 0 0 0 0.24 0"/>
			<feBlend mode="normal" in2="BackgroundImageFix" result="effect1_dropShadow_26_1983"/>
			<feColorMatrix in="SourceAlpha" type="matrix" values="0 0 0 0 0 0 0 0 0 0 0 0 0 0 0 0 0 0 127 0" result="hardAlpha"/>
			<feOffset dy="8"/>
			<feGaussianBlur stdDeviation="4"/>
			<feComposite in2="hardAlpha" operator="out"/>
			<feColorMatrix type="matrix" values="0 0 0 0 0.0784314 0 0 0 0 0.2 0 0 0 0 0.290196 0 0 0 0.48 0"/>
			<feBlend mode="normal" in2="effect1_dropShadow_26_1983" result="effect2_dropShadow_26_1983"/>
			<feBlend mode="normal" in="SourceGraphic" in2="effect2_dropShadow_26_1983" result="shape"/>
		</filter>
		<filter id="filter2_dd_26_1983" x="69.6138" y="78.3157" width="120.959" height="147.064" filterUnits="userSpaceOnUse" color-interpolation-filters="sRGB">
			<feFlood flood-opacity="0" result="BackgroundImageFix"/>
			<feColorMatrix in="SourceAlpha" type="matrix" values="0 0 0 0 0 0 0 0 0 0 0 0 0 0 0 0 0 0 127 0" result="hardAlpha"/>
			<feOffset dx="10" dy="22"/>
			<feGaussianBlur stdDeviation="19"/>
			<feComposite in2="hardAlpha" operator="out"/>
			<feColorMatrix type="matrix" values="0 0 0 0 0.0789931 0 0 0 0 0.200521 0 0 0 0 0.291667 0 0 0 0.24 0"/>
			<feBlend mode="normal" in2="BackgroundImageFix" result="effect1_dropShadow_26_1983"/>
			<feColorMatrix in="SourceAlpha" type="matrix" values="0 0 0 0 0 0 0 0 0 0 0 0 0 0 0 0 0 0 127 0" result="hardAlpha"/>
			<feOffset dy="8"/>
			<feGaussianBlur stdDeviation="4"/>
			<feComposite in2="hardAlpha" operator="out"/>
			<feColorMatrix type="matrix" values="0 0 0 0 0.0784314 0 0 0 0 0.2 0 0 0 0 0.290196 0 0 0 0.48 0"/>
			<feBlend mode="normal" in2="effect1_dropShadow_26_1983" result="effect2_dropShadow_26_1983"/>
			<feBlend mode="normal" in="SourceGraphic" in2="effect2_dropShadow_26_1983" result="shape"/>
		</filter>
		<linearGradient id="paint0_linear_26_1983" x1="33.9029" y1="42.5026" x2="86.9081" y2="95.5079" gradientUnits="userSpaceOnUse">
			<stop stop-color="#6BD9FF"/>
			<stop offset="1" stop-color="#3EC9F7"/>
		</linearGradient>
		<linearGradient id="paint1_linear_26_1983" x1="34.799" y1="169.492" x2="67.9294" y2="202.621" gradientUnits="userSpaceOnUse">
			<stop stop-color="#6BD9FF"/>
			<stop offset="1" stop-color="#3EC9F7"/>
		</linearGradient>
		<linearGradient id="paint2_linear_26_1983" x1="101.17" y1="114.472" x2="140.596" y2="153.897" gradientUnits="userSpaceOnUse">
			<stop stop-color="#6BD9FF"/>
			<stop offset="1" stop-color="#3EC9F7"/>
		</linearGradient>
	</defs>
</svg>
