<svg width="218" height="218" viewBox="0 0 218 218" fill="none" xmlns="http://www.w3.org/2000/svg">
	<g filter="url(#filter0_dd_26_1486)">
		<path d="M147.2 41.9561L53.0151 137.262C53.0151 137.262 51.8939 137.262 50.7726 137.262C49.6514 137.262 49.6514 137.262 48.5301 136.141C47.4089 135.02 47.4089 132.777 48.5301 131.656L142.715 37.4712C143.836 36.3499 146.079 36.3499 147.2 37.4712C148.321 39.7136 148.321 40.8349 147.2 41.9561Z" fill="white"/>
		<path d="M146.079 57.6536C144.957 58.7749 142.715 58.7749 141.594 57.6536L127.017 44.1986C125.896 43.0774 125.896 40.8349 127.017 39.7136C128.139 38.5924 130.381 38.5924 131.502 39.7136L144.957 53.1686C147.2 54.2899 147.2 56.5324 146.079 57.6536Z" fill="white"/>
		<path d="M68.7126 135.02C67.5913 136.141 65.3488 136.141 64.2276 135.02L50.7726 121.565C49.6514 120.443 49.6514 118.201 50.7726 117.08C51.8939 115.958 54.1363 115.958 55.2576 117.08L68.7126 130.535C69.8338 131.656 69.8338 133.898 68.7126 135.02Z" fill="white"/>
		<path d="M147.2 136.141C147.2 137.262 146.079 137.262 144.957 137.262C143.836 137.262 143.836 137.262 142.715 136.141L48.5301 43.0774C47.4089 41.9561 47.4089 39.7136 48.5301 38.5924C49.6514 37.4711 49.6514 37.4711 50.7726 37.4711C51.8939 37.4711 51.8939 37.4711 53.0151 38.5924L147.2 132.777C148.321 133.898 148.321 135.02 147.2 136.141Z" fill="white"/>
		<path d="M146.079 120.443C146.079 120.443 146.079 121.565 146.079 120.443L131.502 135.02C130.381 136.141 130.381 136.141 129.26 136.141C128.139 136.141 128.139 136.141 127.017 135.02C125.896 133.898 125.896 131.656 127.017 130.535L140.472 117.08C141.594 115.958 141.594 115.958 142.715 115.958C143.836 115.958 143.836 115.958 144.957 117.08C147.2 118.201 147.2 119.322 146.079 120.443Z" fill="white"/>
		<path d="M68.7126 44.1986L55.2576 57.6536C54.1363 58.7748 53.0151 58.7748 53.0151 58.7748C51.8939 58.7748 50.7726 58.7748 50.7726 57.6536C49.6514 56.5324 49.6514 54.2899 50.7726 53.1686L64.2276 39.7136C65.3488 38.5924 65.3488 38.5924 66.4701 38.5924C67.5913 38.5924 67.5913 38.5924 68.7126 39.7136C69.8338 40.8349 69.8338 43.0774 68.7126 44.1986Z" fill="white"/>
		<path d="M100.107 156.323C98.9862 157.445 98.9862 157.445 97.865 157.445C96.7437 157.445 96.7437 157.445 95.6225 156.323C94.5013 155.202 94.5013 155.202 94.5013 154.081V20.6524C94.5013 19.5312 94.5013 19.5312 95.6225 18.4099C95.6225 18.4099 96.7437 17.2887 97.865 17.2887C98.9862 17.2887 98.9862 17.2887 100.107 18.4099C101.229 19.5312 101.229 19.5312 101.229 20.6524V154.081C101.229 155.202 101.229 155.202 100.107 156.323Z" fill="white"/>
		<path d="M110.199 143.99C109.077 145.111 109.077 145.111 107.956 145.111H88.895C87.7738 145.111 87.7738 145.111 86.6525 143.99C85.5313 142.868 85.5313 142.868 85.5313 141.747C85.5313 140.626 85.5313 140.626 86.6525 139.505C87.7738 138.383 87.7738 138.383 88.895 138.383H107.956C109.077 138.383 109.077 138.383 110.199 139.505C111.32 140.626 111.32 140.626 111.32 141.747C111.32 142.868 111.32 142.868 110.199 143.99Z" fill="white"/>
		<path d="M110.199 35.2287C109.077 36.3499 109.077 36.3499 107.956 36.3499H87.7738C86.6525 36.3499 85.5313 35.2287 85.5313 32.9862C85.5313 31.8649 85.5313 31.8649 86.6525 30.7437C87.7738 29.6224 87.7738 29.6224 88.895 29.6224H107.956C109.077 29.6224 109.077 29.6224 110.199 30.7437C111.32 31.8649 111.32 31.8649 111.32 32.9862C111.32 34.1074 110.199 34.1074 110.199 35.2287Z" fill="white"/>
		<path d="M167.382 89.0485C166.261 90.1698 166.261 90.1698 165.14 90.1698H31.7114C30.5902 90.1698 30.5902 90.1698 29.4689 89.0485C28.3477 89.0485 28.3477 87.9273 28.3477 87.9273C28.3477 86.806 28.3477 86.806 29.4689 85.6848C30.5902 84.5635 30.5902 84.5635 31.7114 84.5635H165.14C166.261 84.5635 166.261 84.5635 167.382 85.6848C168.504 86.806 168.504 86.806 168.504 87.9273C167.382 87.9273 167.382 89.0485 167.382 89.0485Z" fill="white"/>
		<path d="M46.2876 99.1398C45.1664 100.261 44.0451 100.261 44.0451 100.261C42.9239 100.261 42.9239 100.261 41.8026 99.1398C40.6814 99.1398 40.6814 98.0185 40.6814 96.8973V77.8361C40.6814 76.7148 40.6814 76.7148 41.8026 75.5936C42.9239 74.4723 42.9239 74.4723 44.0451 74.4723C45.1664 74.4723 45.1664 74.4723 46.2876 75.5936C47.4089 76.7148 47.4089 76.7148 47.4089 77.8361V96.8973C46.2876 98.0185 46.2876 99.1398 46.2876 99.1398Z" fill="white"/>
		<path d="M155.049 99.1398C153.927 100.261 153.927 100.261 152.806 100.261C151.685 100.261 151.685 100.261 150.564 99.1398C149.442 98.0185 149.442 98.0185 149.442 96.8973V77.8361C149.442 76.7148 149.442 76.7148 150.564 75.5936C151.685 74.4723 151.685 74.4723 152.806 74.4723C153.927 74.4723 153.927 74.4723 155.049 75.5936C156.17 76.7148 156.17 76.7148 156.17 77.8361V96.8973C155.049 98.0185 155.049 98.0185 155.049 99.1398Z" fill="white"/>
		<path d="M127.017 114.837C127.017 115.958 125.896 115.958 127.017 114.837C125.896 115.958 124.775 115.958 124.775 115.958L110.199 113.716L100.107 126.05C100.107 127.171 98.9862 127.171 97.865 127.171C96.7437 127.171 95.6225 127.171 95.6225 126.05L86.6525 113.716L72.0763 115.958C70.9551 115.958 69.8338 115.958 69.8338 114.837C68.7126 113.716 68.7126 113.716 68.7126 112.595L70.9551 98.0185L59.7426 90.1698C58.6213 90.1698 58.6213 89.0485 58.6213 87.9273C58.6213 86.806 58.6213 86.806 58.6213 86.806C58.6213 86.806 58.6213 86.806 59.7426 85.6848L72.0763 76.7148L68.7126 62.1386C68.7126 61.0173 68.7126 61.0173 68.7126 59.8961C70.9551 58.7748 70.9551 58.7748 72.0763 58.7748L86.6525 61.0173C95.6225 48.6836 95.6225 48.6836 95.6225 48.6836C96.7437 47.5624 96.7437 47.5624 97.865 47.5624C98.9862 47.5624 100.107 47.5624 100.107 48.6836L109.077 61.0173L123.654 58.7748C124.775 58.7748 125.896 58.7748 125.896 58.7748C127.017 59.8961 127.017 59.8961 127.017 61.0173L124.775 76.7148L137.109 85.6848C137.109 85.6848 137.109 85.6848 138.23 85.6848C139.351 86.806 139.351 87.9273 138.23 89.0485L124.775 98.0185L127.017 112.595C127.017 113.716 127.017 114.837 127.017 114.837ZM105.714 109.231C106.835 108.11 107.956 108.11 107.956 108.11L120.29 110.352L119.169 98.0185C119.169 96.8972 119.169 96.8972 119.169 95.776C119.169 95.776 119.169 95.776 120.29 94.6548L130.381 86.806L120.29 80.0785C119.169 78.9573 119.169 77.836 119.169 77.836L121.411 65.5023L107.956 66.6236C106.835 66.6236 105.714 66.6236 105.714 65.5023L97.865 55.4111L90.0163 65.5023C90.0163 66.6236 88.895 66.6236 87.7738 66.6236L75.44 64.3811L77.6825 76.7148C77.6825 77.836 77.6825 77.836 77.6825 78.9573C77.6825 78.9573 77.6825 78.9573 76.5613 80.0785L65.3488 87.9273L75.44 95.776C76.5613 96.8972 76.5613 96.8972 76.5613 98.0185L74.3188 110.352L86.6525 108.11C87.7738 108.11 88.895 108.11 88.895 109.231L96.7437 119.322L105.714 109.231Z" fill="white"/>
		<path d="M146.079 108.11C146.079 108.11 144.957 108.11 146.079 108.11C144.957 109.231 144.957 109.231 144.957 109.231L124.775 113.716L120.29 133.898V135.02L119.169 136.141C118.047 136.141 116.926 136.141 116.926 136.141L100.107 124.928L83.2888 136.141C82.1675 136.141 81.0463 136.141 81.0463 136.141C79.925 136.141 79.925 135.02 79.925 133.898L75.44 113.716L55.2576 109.231C54.1363 109.231 54.1363 108.11 53.0151 108.11C53.0151 106.988 53.0151 105.867 53.0151 105.867L64.2276 89.0485L50.7726 69.9873C50.7726 68.8661 50.7726 67.7448 50.7726 67.7448C50.7726 67.7448 50.7726 67.7448 50.7726 66.6236L51.8938 65.5023L72.0763 61.0173L76.5613 40.8349V39.7136L77.6825 38.5924C78.8038 38.5924 79.925 38.5924 79.925 38.5924L96.7437 49.8049L113.562 38.5924C114.684 38.5924 115.805 38.5924 115.805 38.5924C116.926 38.5924 116.926 39.7136 116.926 40.8349L121.411 61.0173L141.594 65.5023C142.715 65.5023 142.715 66.6236 143.836 66.6236C143.836 67.7448 143.836 68.8661 143.836 68.8661L132.624 85.6848L143.836 102.503C146.079 105.867 146.079 106.988 146.079 108.11C146.079 108.11 146.079 106.988 146.079 108.11ZM119.169 109.231L120.29 108.11L138.23 103.625L129.26 89.0485C129.26 87.9273 129.26 86.806 129.26 85.6848L139.351 69.9873L121.411 66.6236C120.29 66.6236 119.169 65.5023 119.169 64.3811L114.684 46.4411L98.9862 56.5324C97.865 56.5324 96.7437 57.6536 95.6225 56.5324L81.0463 46.4411L76.5613 64.3811V65.5023L75.44 66.6236L57.5001 71.1086L67.5913 86.806C67.5913 87.9273 68.7126 89.0485 67.5913 90.1698L57.5001 105.867L75.44 110.352C76.5613 110.352 77.6825 111.473 77.6825 112.595L82.1675 130.535L97.865 120.443C98.9862 120.443 100.107 120.443 101.229 120.443L116.926 130.535L119.169 109.231C119.169 110.352 119.169 110.352 119.169 109.231Z" fill="white"/>
		<path d="M149.442 41.9561L55.2576 136.141C54.1363 137.262 53.0151 137.262 53.0151 137.262C51.8939 137.262 50.7726 137.262 50.7726 136.141C49.6514 135.02 49.6514 132.777 50.7726 131.656L144.957 37.4712C146.079 36.3499 148.321 36.3499 149.442 37.4712C149.442 38.5924 149.442 40.8349 149.442 41.9561Z" fill="#E1F0FA"/>
		<path d="M147.2 57.6536C146.079 58.7749 143.836 58.7749 142.715 57.6536L129.26 44.1986C128.139 43.0774 128.139 40.8349 129.26 39.7136C130.381 38.5924 132.624 38.5924 133.745 39.7136L147.2 53.1686C148.321 54.2899 148.321 55.4111 147.2 57.6536Z" fill="#E1F0FA"/>
		<path d="M70.9551 133.898C70.9551 133.898 69.8338 133.898 70.9551 133.898C69.8338 135.02 67.5913 135.02 66.4701 133.898L53.0151 120.443C51.8939 119.322 51.8939 117.08 53.0151 115.958C54.1363 114.837 56.3788 114.837 57.5001 115.958L70.9551 129.413C70.9551 131.656 70.9551 132.777 70.9551 133.898Z" fill="#E1F0FA"/>
		<path d="M149.442 136.141C148.321 137.262 147.2 137.262 147.2 137.262C146.079 137.262 146.079 137.262 144.957 136.141L49.6514 41.9561C48.5301 40.8349 48.5301 38.5924 49.6514 37.4711C50.7726 37.4711 51.8939 36.3499 51.8939 36.3499C51.8939 36.3499 53.0151 36.3499 54.1363 37.4711L148.321 131.656C149.442 132.777 150.564 135.02 149.442 136.141Z" fill="#E1F0FA"/>
		<path d="M147.2 120.443L132.624 135.02C131.502 136.141 131.502 136.141 130.381 136.141C129.26 136.141 129.26 136.141 128.139 135.02C127.017 133.898 127.017 131.656 128.139 130.535L141.594 117.08C142.715 115.958 142.715 115.958 143.836 115.958C144.957 115.958 144.957 115.958 146.079 117.08C148.321 117.08 148.321 119.322 147.2 120.443Z" fill="#E1F0FA"/>
		<path d="M70.9551 43.0774C69.8338 43.0774 69.8338 44.1986 70.9551 43.0774L56.3788 57.6536C55.2576 57.6536 55.2576 58.7748 54.1363 58.7748C53.0151 58.7748 53.0151 58.7748 51.8939 57.6536C50.7726 56.5324 50.7726 54.2899 51.8939 53.1686L65.3488 39.7136C66.4701 38.5924 66.4701 38.5924 67.5913 38.5924C68.7126 38.5924 68.7126 38.5924 69.8338 39.7136C70.9551 40.8349 70.9551 41.9561 70.9551 43.0774Z" fill="#E1F0FA"/>
		<path d="M102.35 155.202C101.229 156.323 101.229 156.323 100.107 156.323C98.9862 156.323 98.9862 156.323 97.865 155.202C96.7437 154.081 96.7437 154.081 96.7437 152.96V19.5312C96.7437 18.4099 96.7437 18.4099 97.865 17.2887C98.9862 16.1674 98.9862 16.1674 100.107 16.1674C101.229 16.1674 101.229 16.1674 102.35 17.2887C103.471 18.4099 103.471 18.4099 103.471 19.5312V152.96C102.35 154.081 102.35 155.202 102.35 155.202Z" fill="#E1F0FA"/>
		<path d="M111.32 142.868C111.32 142.868 111.32 143.99 111.32 142.868C110.199 143.99 110.199 143.99 109.077 143.99H90.0163C88.895 143.99 88.895 143.99 87.7738 142.868C86.6525 141.747 86.6525 141.747 86.6525 140.626C86.6525 139.505 86.6525 139.505 87.7738 138.383C88.895 137.262 88.895 137.262 90.0163 137.262H109.077C110.199 137.262 110.199 137.262 111.32 138.383C112.441 139.505 112.441 139.505 112.441 140.626C112.441 141.747 112.441 142.868 111.32 142.868Z" fill="#E1F0FA"/>
		<path d="M111.32 34.1074C111.32 35.2287 110.199 35.2287 109.077 35.2287H90.0163C87.7738 35.2287 86.6525 34.1074 86.6525 31.8649C86.6525 30.7437 86.6525 30.7437 87.7738 29.6224C88.895 28.5012 88.895 28.5012 90.0163 28.5012H109.077C110.199 28.5012 110.199 28.5012 111.32 29.6224C112.441 30.7437 112.441 30.7437 112.441 31.8649C112.441 32.9862 112.441 34.1074 111.32 34.1074Z" fill="#E1F0FA"/>
		<path d="M168.504 89.0485C167.382 90.1698 167.382 90.1698 166.261 90.1698H32.8326C31.7114 90.1698 31.7114 90.1698 30.5901 89.0485C30.5901 89.0485 29.4689 87.9273 29.4689 86.806C29.4689 85.6848 29.4689 85.6848 30.5901 84.5635C31.7114 83.4423 31.7114 83.4423 32.8326 83.4423H166.261C167.382 83.4423 167.382 83.4423 168.504 84.5635C169.625 85.6848 169.625 85.6848 169.625 86.806C169.625 87.9273 168.504 87.9273 168.504 89.0485Z" fill="#E1F0FA"/>
		<path d="M47.4089 99.1398C46.2876 99.1398 46.2876 100.261 45.1664 100.261C44.0451 100.261 44.0451 100.261 42.9239 99.1398C41.8026 98.0185 41.8026 98.0185 41.8026 96.8973V77.8361C41.8026 76.7148 41.8026 76.7148 42.9239 75.5936C44.0451 74.4723 44.0451 74.4723 45.1664 74.4723C46.2876 74.4723 46.2876 74.4723 47.4089 75.5936C48.5301 76.7148 48.5301 76.7148 48.5301 77.8361V96.8973C48.5301 96.8973 48.5301 98.0185 47.4089 99.1398Z" fill="#E1F0FA"/>
		<path d="M156.17 98.0185C156.17 99.1398 156.17 99.1398 156.17 98.0185C155.049 99.1398 155.049 99.1398 153.927 99.1398C152.806 99.1398 152.806 99.1398 151.685 98.0185C150.564 96.8973 150.564 96.8973 150.564 95.776V76.7148C150.564 75.5936 150.564 75.5936 151.685 74.4723C152.806 73.3511 152.806 73.3511 153.927 73.3511C155.049 73.3511 155.049 73.3511 156.17 74.4723C157.291 75.5936 157.291 75.5936 157.291 76.7148V95.776C157.291 96.8973 157.291 98.0185 156.17 98.0185Z" fill="#E1F0FA"/>
		<path d="M128.139 114.837C127.017 115.958 125.896 115.958 125.896 115.958L111.32 113.716L102.35 126.05C102.35 127.171 101.229 127.171 100.107 127.171C98.9862 127.171 97.865 127.171 97.865 126.05L88.895 113.716L74.3188 115.958C73.1976 115.958 72.0763 115.958 72.0763 114.837C70.9551 113.716 70.9551 113.716 70.9551 112.595L73.1976 98.0185L60.8638 89.0485C59.7426 89.0485 59.7426 87.9273 59.7426 86.806C59.7426 85.6848 59.7426 85.6848 59.7426 84.5635C59.7426 84.5635 59.7426 84.5635 60.8638 83.4423L73.1976 75.5936L70.9551 61.0173C70.9551 59.8961 70.9551 59.8961 70.9551 58.7749C72.0763 57.6536 73.1976 57.6536 73.1976 57.6536L87.7738 59.8961C96.7438 47.5624 96.7437 47.5624 96.7437 47.5624C97.865 47.5624 98.9862 47.5624 98.9862 47.5624C100.107 47.5624 101.229 47.5624 101.229 48.6836L110.199 61.0173L124.775 58.7749C125.896 58.7749 127.017 58.7749 127.017 59.8961C128.139 61.0173 128.139 61.0173 128.139 62.1386L125.896 75.5936L138.23 84.5635C138.23 84.5635 138.23 84.5635 139.351 84.5635C140.472 85.6848 140.472 86.806 139.351 87.9273L125.896 98.0185L128.139 112.595C128.139 113.716 128.139 113.716 128.139 114.837ZM106.835 109.231C106.835 109.231 106.835 108.11 106.835 109.231C107.956 108.11 109.077 108.11 109.077 108.11L121.411 110.352L120.29 96.8973C120.29 95.776 120.29 95.776 120.29 94.6548C120.29 94.6548 120.29 94.6548 121.411 93.5335L131.502 85.6848L121.411 78.9573C120.29 78.9573 120.29 77.8361 120.29 76.7148L122.532 64.3811L110.199 66.6236C109.077 66.6236 107.956 66.6236 107.956 65.5023L98.9862 54.2899L92.2588 65.5023C91.1375 65.5023 90.0163 66.6236 88.895 66.6236L76.5613 64.3811L78.8038 76.7148C78.8038 77.8361 78.8038 77.8361 78.8038 78.9573C78.8038 78.9573 78.8038 78.9573 77.6825 80.0786L67.5913 86.806L77.6825 94.6548C78.8038 95.776 78.8038 95.776 78.8038 96.8973L76.5613 109.231L88.895 106.988C90.0163 106.988 91.1375 106.988 91.1375 108.11L98.9862 118.201L106.835 109.231Z" fill="#E1F0FA"/>
		<path d="M147.2 106.988C147.2 106.988 147.2 108.11 147.2 106.988C146.079 108.11 146.079 108.11 146.079 108.11L125.896 112.595L121.411 132.777V133.898L120.29 135.02C119.169 135.02 118.047 135.02 118.047 135.02L101.229 123.807L84.41 135.02C83.2888 135.02 82.1675 135.02 82.1675 135.02C81.0463 135.02 81.0463 133.898 81.0463 132.777L73.1975 113.716L53.0151 109.231C51.8938 109.231 51.8938 108.11 50.7726 108.11C50.7726 106.988 50.7726 105.867 50.7726 105.867L61.9851 89.0485L51.8938 69.9873C51.8938 68.8661 51.8938 67.7448 51.8938 67.7448C51.8938 67.7448 51.8938 67.7448 51.8938 66.6236L53.0151 65.5023L73.1975 61.0173L77.6825 40.8349V39.7136L78.8038 38.5924C79.925 38.5924 81.0463 38.5924 81.0463 38.5924L97.865 49.8049L114.684 38.5924C115.805 38.5924 116.926 38.5924 116.926 38.5924C118.047 38.5924 118.047 39.7136 118.047 40.8349L122.532 61.0173L142.715 65.5023C143.836 65.5023 143.836 66.6236 144.957 66.6236C144.957 67.7448 144.957 68.8661 144.957 68.8661L133.745 85.6848L144.957 102.503C147.2 104.746 148.321 105.867 147.2 106.988ZM121.411 109.231L122.532 108.11L140.472 103.625L130.381 87.9273C130.381 86.806 130.381 85.6848 130.381 84.5635L140.472 69.9873L122.532 65.5023C121.411 65.5023 120.29 64.3811 120.29 63.2598L116.926 46.4411L101.229 55.4111C100.107 55.4111 98.9862 55.4111 97.865 55.4111L82.1675 46.4411L78.8038 63.2598V64.3811L77.6825 65.5023L58.6213 69.9873L68.7126 85.6848C69.8338 86.806 69.8338 87.9273 68.7126 89.0485L58.6213 103.625L76.5613 108.11C77.6825 108.11 78.8038 109.231 78.8038 110.352L83.2888 128.292L98.9862 118.201C100.107 118.201 101.229 118.201 102.35 118.201L118.047 128.292L121.411 109.231C121.411 109.231 120.29 109.231 121.411 109.231Z" fill="#E1F0FA"/>
	</g>
	<defs>
		<filter id="filter0_dd_26_1486" x="0" y="0" width="218" height="218" filterUnits="userSpaceOnUse" color-interpolation-filters="sRGB">
			<feFlood flood-opacity="0" result="BackgroundImageFix"/>
			<feColorMatrix in="SourceAlpha" type="matrix" values="0 0 0 0 0 0 0 0 0 0 0 0 0 0 0 0 0 0 127 0" result="hardAlpha"/>
			<feOffset dx="10" dy="22"/>
			<feGaussianBlur stdDeviation="19"/>
			<feComposite in2="hardAlpha" operator="out"/>
			<feColorMatrix type="matrix" values="0 0 0 0 0.0789931 0 0 0 0 0.200521 0 0 0 0 0.291667 0 0 0 0.24 0"/>
			<feBlend mode="normal" in2="BackgroundImageFix" result="effect1_dropShadow_26_1486"/>
			<feColorMatrix in="SourceAlpha" type="matrix" values="0 0 0 0 0 0 0 0 0 0 0 0 0 0 0 0 0 0 127 0" result="hardAlpha"/>
			<feOffset dy="8"/>
			<feGaussianBlur stdDeviation="4"/>
			<feComposite in2="hardAlpha" operator="out"/>
			<feColorMatrix type="matrix" values="0 0 0 0 0.0784314 0 0 0 0 0.2 0 0 0 0 0.290196 0 0 0 0.48 0"/>
			<feBlend mode="normal" in2="effect1_dropShadow_26_1486" result="effect2_dropShadow_26_1486"/>
			<feBlend mode="normal" in="SourceGraphic" in2="effect2_dropShadow_26_1486" result="shape"/>
		</filter>
	</defs>
</svg>
