<svg width="271" height="247" viewBox="0 0 271 247" fill="none" xmlns="http://www.w3.org/2000/svg">
	<g filter="url(#filter0_dd_26_1137)">
		<path d="M205.169 97.8752C203.242 92.0932 200.351 87.2749 195.532 83.4202C196.496 79.5655 197.46 76.6745 197.46 72.8199C198.423 54.5102 183.968 40.0553 166.622 39.0916C153.131 38.1279 140.603 46.8009 135.785 58.3649C134.821 58.3649 133.858 58.3649 132.894 58.3649C120.366 57.4012 110.73 63.1832 103.984 71.8562C102.057 70.8925 100.13 69.9289 98.2022 69.9289C88.5655 69.9289 79.8926 76.6745 79.8926 87.2749C79.8926 89.2022 79.8926 90.1658 79.8926 92.0932C77.0016 92.0932 74.1106 94.9842 72.1832 97.8752C69.2922 94.0205 64.4739 91.1295 58.6919 91.1295C50.9826 90.1658 45.2006 94.9842 42.3096 101.73H41.3459C34.6003 101.73 28.8183 106.548 28.8183 113.294C28.8183 120.039 33.6366 125.821 40.3823 125.821C44.2369 125.821 47.1279 124.858 49.0553 121.967C50.9826 122.93 53.8736 123.894 56.7646 124.858C59.6556 130.64 65.4376 135.458 72.1832 135.458C78.9289 135.458 85.6745 131.603 88.5655 125.821C90.4929 126.785 92.4202 127.749 95.3112 127.749C96.2749 127.749 97.2385 127.749 97.2385 127.749C101.093 133.531 107.839 137.385 115.548 137.385C123.257 137.385 129.039 134.494 133.858 129.676C136.749 135.458 142.531 139.313 149.276 139.313C156.022 139.313 162.768 135.458 165.659 129.676C169.513 131.603 173.368 132.567 177.223 132.567C185.896 132.567 194.569 128.712 199.387 122.93C200.351 122.93 202.278 123.894 203.242 123.894C209.987 123.894 216.733 119.076 216.733 111.366C217.697 103.657 211.915 97.8752 205.169 97.8752Z" fill="#008DD4"/>
		<path d="M205.169 97.8752C203.242 92.0932 200.351 87.2748 195.532 83.4202C196.496 80.5292 197.46 76.6745 197.46 73.7835C198.423 55.4739 183.968 41.0189 166.622 40.0553C153.131 39.0916 140.604 47.7646 135.785 59.3286C134.822 59.3286 133.858 59.3286 132.894 59.3286C121.33 58.3649 110.73 63.1832 104.948 71.8562C103.021 70.8925 101.093 70.8925 99.1659 70.8925C89.5293 70.8925 80.8563 77.6382 80.8563 88.2385C80.8563 90.1658 80.8563 91.1295 80.8563 93.0568C77.0016 93.0568 74.1106 94.9842 72.1833 97.8752C69.2923 94.0205 64.474 91.1295 59.6557 91.1295C51.9463 91.1295 45.2007 94.9842 43.2734 101.73H42.3097C35.564 101.73 29.782 106.548 29.782 113.294C29.782 120.039 34.6004 125.821 41.346 125.821C45.2007 125.821 48.0917 124.858 50.019 121.967C51.9463 122.93 54.8373 123.894 57.7283 124.858C60.6193 130.64 66.4013 135.458 73.147 135.458C79.8926 135.458 86.6383 131.603 89.5293 125.821C91.4566 126.785 93.3839 127.749 96.2749 127.749C97.2386 127.749 98.2023 127.749 98.2023 127.749C102.057 133.531 108.803 137.385 116.512 137.385C124.221 137.385 130.003 134.494 134.822 129.676C137.713 135.458 143.495 139.313 150.24 139.313C156.986 139.313 163.731 135.458 166.622 129.676C170.477 131.603 174.332 132.567 178.186 132.567C186.859 132.567 195.532 128.712 200.351 122.93C201.314 122.93 203.242 123.894 204.205 123.894C210.951 123.894 217.697 119.076 217.697 111.366C217.697 104.621 212.878 97.8752 205.169 97.8752Z" fill="url(#paint0_linear_26_1137)"/>
	</g>
	<g filter="url(#filter1_dd_26_1137)">
		<path d="M153.131 79.5655C154.095 76.6745 154.095 73.7836 154.095 69.9289C154.095 50.6556 138.676 34.2733 118.439 34.2733C103.02 34.2733 89.5292 45.8373 85.6745 61.2559H84.7108C77.0015 61.2559 70.2559 65.1106 66.4012 70.8926C63.5102 69.9289 61.5829 69.9289 59.6555 69.9289C50.0189 69.9289 42.3096 77.6382 42.3096 87.2749C42.3096 96.9115 50.0189 104.621 59.6555 104.621C63.5102 104.621 67.3649 102.694 70.2559 100.766C74.1105 103.657 78.9288 105.584 84.7108 105.584C90.4928 105.584 96.2748 103.657 100.129 99.8025C105.911 103.657 112.657 105.584 120.366 105.584C127.112 105.584 133.858 103.657 138.676 100.766C141.567 103.657 144.458 105.584 149.276 105.584C156.986 105.584 162.768 99.8025 162.768 92.0932C161.804 86.3112 157.949 81.4929 153.131 79.5655Z" fill="#4FC5FF"/>
		<path d="M154.095 79.5655C155.058 76.6745 155.058 73.7836 155.058 69.9289C155.058 50.6556 139.64 34.2733 119.403 34.2733C103.021 34.2733 89.5292 45.8373 85.6746 61.2559H84.7109C77.0016 61.2559 70.2559 65.1106 66.4013 70.8926C64.4739 70.8926 62.5466 69.9289 59.6556 69.9289C50.9826 69.9289 43.2733 77.6382 43.2733 87.2749C43.2733 96.9115 50.9826 104.621 60.6193 104.621C64.4739 104.621 68.3286 102.694 71.2196 100.766C75.0743 103.657 79.8926 105.584 85.6746 105.584C91.4566 105.584 97.2386 103.657 101.093 99.8025C105.912 103.657 112.657 105.584 120.367 105.584C127.112 105.584 133.858 103.657 138.676 100.766C141.567 103.657 144.458 105.584 149.276 105.584C156.986 105.584 162.768 99.8025 162.768 92.0932C161.804 86.3112 158.913 81.4929 154.095 79.5655Z" fill="url(#paint1_linear_26_1137)"/>
	</g>
	<g filter="url(#filter2_dd_26_1137)">
		<path d="M173.368 103.657L178.186 147.022L199.387 134.494L198.423 186.532L186.859 153.768L169.514 167.259L148.313 103.657H173.368Z" fill="#FFE3AB"/>
		<path d="M173.368 103.657L180.114 147.986L199.387 134.494L198.424 186.532L188.787 153.768L170.477 166.295L149.277 103.657H173.368Z" fill="url(#paint2_linear_26_1137)"/>
	</g>
	<g filter="url(#filter3_dd_26_1137)">
		<path d="M205.169 73.7835H204.206C202.278 68.0016 196.496 64.1469 189.751 64.1469C187.823 64.1469 185.896 64.1469 183.969 65.1106C182.041 59.3286 176.259 55.4739 170.477 55.4739C164.695 55.4739 158.913 59.3286 156.986 65.1106C156.022 65.1106 155.059 65.1106 155.059 65.1106C148.313 65.1106 142.531 69.9289 142.531 76.6745C141.567 76.6745 140.604 76.6745 139.64 76.6745C131.931 76.6745 125.185 83.4202 125.185 91.1295C125.185 98.8388 131.931 105.584 139.64 105.584C140.604 111.366 146.386 116.185 152.168 116.185C156.986 116.185 160.841 113.294 163.732 109.439C166.623 115.221 172.405 118.112 179.15 118.112C186.86 118.112 192.642 113.294 195.533 107.512C198.424 109.439 201.315 109.439 204.206 109.439C213.842 109.439 221.552 101.73 221.552 92.0932C221.552 82.4565 214.806 73.7835 205.169 73.7835Z" fill="#4FC5FF"/>
		<path d="M206.133 73.7835H205.169C203.242 68.0016 197.46 64.1469 190.714 64.1469C188.787 64.1469 186.859 64.1469 184.932 65.1106C183.005 59.3286 177.223 55.4739 171.441 55.4739C165.659 55.4739 159.877 59.3286 157.95 65.1106C156.986 65.1106 156.022 65.1106 156.022 65.1106C149.277 65.1106 143.495 69.9289 143.495 76.6745C142.531 76.6745 141.567 76.6745 140.604 76.6745C132.894 76.6745 126.149 83.4202 126.149 91.1295C126.149 98.8388 132.894 105.584 140.604 105.584C141.567 111.366 147.349 116.185 153.131 116.185C157.95 116.185 161.804 113.294 164.695 109.439C167.586 115.221 173.368 118.112 180.114 118.112C187.823 118.112 193.605 113.294 196.496 107.512C199.387 109.439 202.278 109.439 205.169 109.439C214.806 109.439 222.515 101.73 222.515 92.0932C223.479 81.4929 215.769 73.7835 206.133 73.7835Z" fill="url(#paint3_linear_26_1137)"/>
	</g>
	<g filter="url(#filter4_dd_26_1137)">
		<path d="M190.714 38.128C189.75 38.128 188.787 38.128 188.787 38.128C185.896 29.455 178.187 23.673 168.55 23.673C163.732 23.673 159.877 24.6366 156.986 27.5276C155.059 20.782 148.313 16.9273 141.567 16.9273C132.894 16.9273 126.149 22.7093 125.185 30.4186C123.258 28.4913 120.367 27.5276 116.512 27.5276C107.839 27.5276 102.057 32.346 101.093 39.0916C89.5293 39.0916 80.8563 47.7646 80.8563 59.3286C80.8563 70.8926 89.5293 79.5656 101.093 79.5656C104.948 79.5656 107.839 78.6019 110.73 76.6746C111.694 83.4202 117.476 89.2022 125.185 89.2022C130.967 89.2022 135.785 86.3112 138.676 81.4929C142.531 87.2749 150.24 92.0932 158.913 92.0932C169.514 92.0932 179.15 85.3475 182.041 74.7472C184.932 75.7109 187.823 76.6746 190.714 76.6746C201.314 76.6746 209.987 68.0016 209.987 57.4013C209.987 46.8009 201.314 38.128 190.714 38.128Z" fill="#63CCFF"/>
		<path d="M191.678 39.0916C190.714 39.0916 189.75 39.0916 189.75 39.0916C185.896 30.4186 178.186 24.6366 168.55 24.6366C163.731 24.6366 159.877 25.6003 156.986 28.4913C155.058 21.7456 148.313 17.891 141.567 17.891C132.894 17.891 126.148 23.673 125.185 31.3823C123.257 29.455 120.366 28.4913 116.512 28.4913C109.766 28.4913 103.021 34.2733 103.021 41.0189C90.4929 40.0553 81.8199 48.7283 81.8199 60.2922C81.8199 71.8562 90.4929 80.5292 102.057 80.5292C105.912 80.5292 108.803 79.5655 111.694 77.6382C112.657 84.3839 118.439 90.1659 126.148 90.1659C131.93 90.1659 136.749 87.2749 139.64 82.4565C143.494 88.2385 151.204 92.0932 158.913 92.0932C169.513 92.0932 179.15 85.3475 182.041 74.7472C184.932 75.7109 187.823 76.6745 190.714 76.6745C201.314 76.6745 209.987 68.0016 209.987 57.4012C210.951 47.7646 202.278 39.0916 191.678 39.0916Z" fill="#007FC9"/>
	</g>
	<g filter="url(#filter5_dd_26_1137)">
		<path d="M128.076 86.3112C126.149 86.3112 125.185 86.3112 123.258 87.2749C121.33 77.6382 112.657 69.9289 102.057 68.9652C91.4567 68.0016 82.7837 74.7472 79.8927 84.3839C71.2197 83.4202 63.5104 90.1659 62.5468 98.8388C62.5468 107.512 68.3287 115.221 77.9654 115.221C82.7837 115.221 86.6384 114.257 89.5294 111.366C92.4204 113.294 96.275 114.257 100.13 114.257C106.875 114.257 112.657 112.33 117.476 107.512C119.403 110.403 123.258 112.33 127.112 112.33C134.822 112.33 140.604 107.512 140.604 99.8025C140.604 93.0569 135.785 87.2749 128.076 86.3112Z" fill="#6ED8FF"/>
		<path d="M129.04 86.3112C127.112 86.3112 126.149 86.3112 124.221 87.2749C122.294 77.6382 113.621 69.9289 103.021 68.9652C92.4203 68.0016 83.7474 74.7472 80.8564 84.3839C72.1834 84.3839 64.4741 90.1659 64.4741 99.8025C64.4741 108.475 70.2561 116.185 79.8927 116.185C84.711 116.185 88.5657 115.221 91.4567 112.33C94.3477 114.257 98.2023 115.221 102.057 115.221C108.803 115.221 114.585 113.294 119.403 108.475C121.33 111.366 125.185 113.294 129.04 113.294C136.749 113.294 142.531 108.475 142.531 100.766C141.567 93.0569 135.785 87.2749 129.04 86.3112Z" fill="#008CDE"/>
	</g>
	<path d="M85.6747 162.441C85.6747 166.295 82.7837 169.186 78.9291 169.186C75.0744 169.186 72.1834 166.295 72.1834 162.441C72.1834 155.695 78.9291 147.022 78.9291 147.022H79.8927C79.8927 147.022 79.8927 147.022 79.8927 147.986C80.8564 148.949 85.6747 157.622 85.6747 162.441Z" fill="#B3EDFF"/>
	<path d="M86.6385 162.441C86.6385 166.295 83.7475 169.186 79.8928 169.186C76.0382 169.186 73.1472 166.295 73.1472 162.441C73.1472 156.659 79.8928 147.022 79.8928 147.022C79.8928 147.022 86.6385 156.659 86.6385 162.441Z" fill="#61D7FF"/>
	<path d="M63.5104 133.531C63.5104 136.422 60.6194 139.313 57.7284 139.313C54.8374 139.313 51.9464 136.422 51.9464 133.531C51.9464 128.712 57.7284 121.967 57.7284 121.967C59.6557 122.93 63.5104 129.676 63.5104 133.531Z" fill="#B3EDFF"/>
	<path d="M63.5105 133.531C63.5105 136.422 60.6195 139.313 57.7285 139.313C54.8375 139.313 52.9102 136.422 52.9102 133.531C52.9102 128.712 58.6921 121.003 58.6921 121.003C58.6921 121.003 63.5105 128.712 63.5105 133.531Z" fill="#61D7FF"/>
	<path d="M212.879 112.33C212.879 115.221 210.951 117.148 208.06 117.148C205.169 117.148 202.278 115.221 202.278 112.33C202.278 107.512 208.06 100.766 208.06 100.766C209.024 102.693 212.879 108.475 212.879 112.33Z" fill="#B3EDFF"/>
	<path d="M212.879 112.33C212.879 115.221 210.951 117.148 208.06 117.148C205.169 117.148 203.242 115.221 203.242 112.33C203.242 108.475 208.06 100.766 208.06 100.766C208.06 100.766 212.879 107.512 212.879 112.33Z" fill="#61D7FF"/>
	<path d="M144.458 179.787C144.458 182.678 142.531 184.605 139.64 184.605C136.749 184.605 133.858 182.678 133.858 179.787C133.858 174.968 139.64 168.223 139.64 168.223C141.567 170.15 144.458 175.932 144.458 179.787Z" fill="#B3EDFF"/>
	<path d="M145.422 179.787C145.422 182.678 143.495 184.605 140.604 184.605C137.713 184.605 135.785 182.678 135.785 179.787C135.785 175.932 140.604 168.223 140.604 168.223C140.604 168.223 145.422 175.932 145.422 179.787Z" fill="#61D7FF"/>
	<path d="M128.076 151.84C128.076 156.659 124.221 160.513 119.403 160.513C114.585 160.513 110.73 156.659 110.73 151.84C110.73 145.095 119.403 133.531 119.403 133.531C119.403 133.531 128.076 145.095 128.076 151.84Z" fill="#61D7FF"/>
	<defs>
		<filter id="filter0_dd_26_1137" x="0.818298" y="23.0185" width="264.878" height="176.294" filterUnits="userSpaceOnUse" color-interpolation-filters="sRGB">
			<feFlood flood-opacity="0" result="BackgroundImageFix"/>
			<feColorMatrix in="SourceAlpha" type="matrix" values="0 0 0 0 0 0 0 0 0 0 0 0 0 0 0 0 0 0 127 0" result="hardAlpha"/>
			<feOffset dx="10" dy="22"/>
			<feGaussianBlur stdDeviation="19"/>
			<feComposite in2="hardAlpha" operator="out"/>
			<feColorMatrix type="matrix" values="0 0 0 0 0.0789931 0 0 0 0 0.200521 0 0 0 0 0.291667 0 0 0 0.24 0"/>
			<feBlend mode="normal" in2="BackgroundImageFix" result="effect1_dropShadow_26_1137"/>
			<feColorMatrix in="SourceAlpha" type="matrix" values="0 0 0 0 0 0 0 0 0 0 0 0 0 0 0 0 0 0 127 0" result="hardAlpha"/>
			<feOffset dy="8"/>
			<feGaussianBlur stdDeviation="4"/>
			<feComposite in2="hardAlpha" operator="out"/>
			<feColorMatrix type="matrix" values="0 0 0 0 0.0784314 0 0 0 0 0.2 0 0 0 0 0.290196 0 0 0 0.48 0"/>
			<feBlend mode="normal" in2="effect1_dropShadow_26_1137" result="effect2_dropShadow_26_1137"/>
			<feBlend mode="normal" in="SourceGraphic" in2="effect2_dropShadow_26_1137" result="shape"/>
		</filter>
		<filter id="filter1_dd_26_1137" x="14.3096" y="18.2733" width="196.458" height="147.311" filterUnits="userSpaceOnUse" color-interpolation-filters="sRGB">
			<feFlood flood-opacity="0" result="BackgroundImageFix"/>
			<feColorMatrix in="SourceAlpha" type="matrix" values="0 0 0 0 0 0 0 0 0 0 0 0 0 0 0 0 0 0 127 0" result="hardAlpha"/>
			<feOffset dx="10" dy="22"/>
			<feGaussianBlur stdDeviation="19"/>
			<feComposite in2="hardAlpha" operator="out"/>
			<feColorMatrix type="matrix" values="0 0 0 0 0.0789931 0 0 0 0 0.200521 0 0 0 0 0.291667 0 0 0 0.24 0"/>
			<feBlend mode="normal" in2="BackgroundImageFix" result="effect1_dropShadow_26_1137"/>
			<feColorMatrix in="SourceAlpha" type="matrix" values="0 0 0 0 0 0 0 0 0 0 0 0 0 0 0 0 0 0 127 0" result="hardAlpha"/>
			<feOffset dy="8"/>
			<feGaussianBlur stdDeviation="4"/>
			<feComposite in2="hardAlpha" operator="out"/>
			<feColorMatrix type="matrix" values="0 0 0 0 0.0784314 0 0 0 0 0.2 0 0 0 0 0.290196 0 0 0 0.48 0"/>
			<feBlend mode="normal" in2="effect1_dropShadow_26_1137" result="effect2_dropShadow_26_1137"/>
			<feBlend mode="normal" in="SourceGraphic" in2="effect2_dropShadow_26_1137" result="shape"/>
		</filter>
		<filter id="filter2_dd_26_1137" x="120.313" y="87.6572" width="127.074" height="158.875" filterUnits="userSpaceOnUse" color-interpolation-filters="sRGB">
			<feFlood flood-opacity="0" result="BackgroundImageFix"/>
			<feColorMatrix in="SourceAlpha" type="matrix" values="0 0 0 0 0 0 0 0 0 0 0 0 0 0 0 0 0 0 127 0" result="hardAlpha"/>
			<feOffset dx="10" dy="22"/>
			<feGaussianBlur stdDeviation="19"/>
			<feComposite in2="hardAlpha" operator="out"/>
			<feColorMatrix type="matrix" values="0 0 0 0 0.0789931 0 0 0 0 0.200521 0 0 0 0 0.291667 0 0 0 0.24 0"/>
			<feBlend mode="normal" in2="BackgroundImageFix" result="effect1_dropShadow_26_1137"/>
			<feColorMatrix in="SourceAlpha" type="matrix" values="0 0 0 0 0 0 0 0 0 0 0 0 0 0 0 0 0 0 127 0" result="hardAlpha"/>
			<feOffset dy="8"/>
			<feGaussianBlur stdDeviation="4"/>
			<feComposite in2="hardAlpha" operator="out"/>
			<feColorMatrix type="matrix" values="0 0 0 0 0.0784314 0 0 0 0 0.2 0 0 0 0 0.290196 0 0 0 0.48 0"/>
			<feBlend mode="normal" in2="effect1_dropShadow_26_1137" result="effect2_dropShadow_26_1137"/>
			<feBlend mode="normal" in="SourceGraphic" in2="effect2_dropShadow_26_1137" result="shape"/>
		</filter>
		<filter id="filter3_dd_26_1137" x="97.185" y="39.4739" width="173.412" height="138.638" filterUnits="userSpaceOnUse" color-interpolation-filters="sRGB">
			<feFlood flood-opacity="0" result="BackgroundImageFix"/>
			<feColorMatrix in="SourceAlpha" type="matrix" values="0 0 0 0 0 0 0 0 0 0 0 0 0 0 0 0 0 0 127 0" result="hardAlpha"/>
			<feOffset dx="10" dy="22"/>
			<feGaussianBlur stdDeviation="19"/>
			<feComposite in2="hardAlpha" operator="out"/>
			<feColorMatrix type="matrix" values="0 0 0 0 0.0789931 0 0 0 0 0.200521 0 0 0 0 0.291667 0 0 0 0.24 0"/>
			<feBlend mode="normal" in2="BackgroundImageFix" result="effect1_dropShadow_26_1137"/>
			<feColorMatrix in="SourceAlpha" type="matrix" values="0 0 0 0 0 0 0 0 0 0 0 0 0 0 0 0 0 0 127 0" result="hardAlpha"/>
			<feOffset dy="8"/>
			<feGaussianBlur stdDeviation="4"/>
			<feComposite in2="hardAlpha" operator="out"/>
			<feColorMatrix type="matrix" values="0 0 0 0 0.0784314 0 0 0 0 0.2 0 0 0 0 0.290196 0 0 0 0.48 0"/>
			<feBlend mode="normal" in2="effect1_dropShadow_26_1137" result="effect2_dropShadow_26_1137"/>
			<feBlend mode="normal" in="SourceGraphic" in2="effect2_dropShadow_26_1137" result="shape"/>
		</filter>
		<filter id="filter4_dd_26_1137" x="52.8563" y="0.927322" width="205.204" height="151.166" filterUnits="userSpaceOnUse" color-interpolation-filters="sRGB">
			<feFlood flood-opacity="0" result="BackgroundImageFix"/>
			<feColorMatrix in="SourceAlpha" type="matrix" values="0 0 0 0 0 0 0 0 0 0 0 0 0 0 0 0 0 0 127 0" result="hardAlpha"/>
			<feOffset dx="10" dy="22"/>
			<feGaussianBlur stdDeviation="19"/>
			<feComposite in2="hardAlpha" operator="out"/>
			<feColorMatrix type="matrix" values="0 0 0 0 0.0789931 0 0 0 0 0.200521 0 0 0 0 0.291667 0 0 0 0.24 0"/>
			<feBlend mode="normal" in2="BackgroundImageFix" result="effect1_dropShadow_26_1137"/>
			<feColorMatrix in="SourceAlpha" type="matrix" values="0 0 0 0 0 0 0 0 0 0 0 0 0 0 0 0 0 0 127 0" result="hardAlpha"/>
			<feOffset dy="8"/>
			<feGaussianBlur stdDeviation="4"/>
			<feComposite in2="hardAlpha" operator="out"/>
			<feColorMatrix type="matrix" values="0 0 0 0 0.0784314 0 0 0 0 0.2 0 0 0 0 0.290196 0 0 0 0.48 0"/>
			<feBlend mode="normal" in2="effect1_dropShadow_26_1137" result="effect2_dropShadow_26_1137"/>
			<feBlend mode="normal" in="SourceGraphic" in2="effect2_dropShadow_26_1137" result="shape"/>
		</filter>
		<filter id="filter5_dd_26_1137" x="34.5468" y="52.8737" width="155.984" height="123.311" filterUnits="userSpaceOnUse" color-interpolation-filters="sRGB">
			<feFlood flood-opacity="0" result="BackgroundImageFix"/>
			<feColorMatrix in="SourceAlpha" type="matrix" values="0 0 0 0 0 0 0 0 0 0 0 0 0 0 0 0 0 0 127 0" result="hardAlpha"/>
			<feOffset dx="10" dy="22"/>
			<feGaussianBlur stdDeviation="19"/>
			<feComposite in2="hardAlpha" operator="out"/>
			<feColorMatrix type="matrix" values="0 0 0 0 0.0789931 0 0 0 0 0.200521 0 0 0 0 0.291667 0 0 0 0.24 0"/>
			<feBlend mode="normal" in2="BackgroundImageFix" result="effect1_dropShadow_26_1137"/>
			<feColorMatrix in="SourceAlpha" type="matrix" values="0 0 0 0 0 0 0 0 0 0 0 0 0 0 0 0 0 0 127 0" result="hardAlpha"/>
			<feOffset dy="8"/>
			<feGaussianBlur stdDeviation="4"/>
			<feComposite in2="hardAlpha" operator="out"/>
			<feColorMatrix type="matrix" values="0 0 0 0 0.0784314 0 0 0 0 0.2 0 0 0 0 0.290196 0 0 0 0.48 0"/>
			<feBlend mode="normal" in2="effect1_dropShadow_26_1137" result="effect2_dropShadow_26_1137"/>
			<feBlend mode="normal" in="SourceGraphic" in2="effect2_dropShadow_26_1137" result="shape"/>
		</filter>
		<linearGradient id="paint0_linear_26_1137" x1="81.1965" y1="56.7556" x2="179.062" y2="154.622" gradientUnits="userSpaceOnUse">
			<stop stop-color="#1062A1"/>
			<stop offset="1" stop-color="#0A4D80"/>
		</linearGradient>
		<linearGradient id="paint1_linear_26_1137" x1="42.9168" y1="70.3375" x2="162.133" y2="70.3375" gradientUnits="userSpaceOnUse">
			<stop stop-color="#076BBA"/>
			<stop offset="1" stop-color="#0060AB"/>
		</linearGradient>
		<linearGradient id="paint2_linear_26_1137" x1="191.6" y1="168.575" x2="169.752" y2="110.096" gradientUnits="userSpaceOnUse">
			<stop stop-color="#FFD45C"/>
			<stop offset="1" stop-color="#FF9D00"/>
		</linearGradient>
		<linearGradient id="paint3_linear_26_1137" x1="125.313" y1="86.4634" x2="223.28" y2="86.4634" gradientUnits="userSpaceOnUse">
			<stop stop-color="#076BBA"/>
			<stop offset="1" stop-color="#0060AB"/>
		</linearGradient>
	</defs>
</svg>
